<?xml version="1.0" encoding="utf-8"?>
<!-- Generator: Adobe Illustrator 16.0.0, SVG Export Plug-In . SVG Version: 6.00 Build 0)  -->
<!DOCTYPE svg PUBLIC "-//W3C//DTD SVG 1.1//EN" "http://www.w3.org/Graphics/SVG/1.1/DTD/svg11.dtd">
<svg version="1.1" id="Layer_1" xmlns="http://www.w3.org/2000/svg" xmlns:xlink="http://www.w3.org/1999/xlink" x="0px" y="0px"
	 width="1920px" height="178.039px" viewBox="0 0 1920 178.039" enable-background="new 0 0 1920 178.039" xml:space="preserve">
<linearGradient id="SVGID_1_" gradientUnits="userSpaceOnUse" x1="589.2358" y1="90.4727" x2="1394.3983" y2="90.4727">
	<stop  offset="0.0215" style="stop-color:#139E1B"/>
	<stop  offset="0.2865" style="stop-color:#0C8B25"/>
	<stop  offset="0.733" style="stop-color:#037232"/>
	<stop  offset="1" style="stop-color:#006837"/>
</linearGradient>
<path fill="url(#SVGID_1_)" d="M1628.727,179c-18.976-20.697-38.154-38.291-49.227-46.063C1453.5,44.5,1343.875,3.856,1081.5,2
	c-267-1.89-373.273,46.783-444,98c-37.23,26.96-46.441,49.708-48.264,79H1628.727z"/>
<linearGradient id="SVGID_2_" gradientUnits="userSpaceOnUse" x1="-2.3857" y1="61.5957" x2="719.177" y2="150.1925">
	<stop  offset="0.0215" style="stop-color:#139E1B"/>
	<stop  offset="0.2828" style="stop-color:#109520"/>
	<stop  offset="0.7094" style="stop-color:#077C2C"/>
	<stop  offset="1" style="stop-color:#006837"/>
</linearGradient>
<path fill="url(#SVGID_2_)" d="M-1.5,179h930.305c-34.555-28.179-69.655-52.935-83.305-61c-132-78-234-116-484-116
	C178.32,2,70.798,24.02-1.5,54.383V179z"/>
<linearGradient id="SVGID_3_" gradientUnits="userSpaceOnUse" x1="1413.3281" y1="355.7178" x2="1694.6139" y2="20.4945">
	<stop  offset="0.0215" style="stop-color:#139E1B"/>
	<stop  offset="0.2865" style="stop-color:#0C8B25"/>
	<stop  offset="0.733" style="stop-color:#037232"/>
	<stop  offset="1" style="stop-color:#006837"/>
</linearGradient>
<path fill="url(#SVGID_3_)" d="M1920.5,43.783c-54.784-7.384-118.369-11.241-195-11.783c-267-1.89-348,42-428,80
	c-37.094,17.619-68.368,40.717-94.775,67H1920.5V43.783z"/>
</svg>
